<svg xmlns="http://www.w3.org/2000/svg" xmlns:xlink="http://www.w3.org/1999/xlink" xmlns:lucid="lucid" width="1080" height="638"><g transform="translate(-2482 -83)" lucid:page-tab-id="0_0"><path d="M2500 106c0-3.3 2.7-6 6-6h762.34c3.3 0 6 2.7 6 6v483.9c0 3.32-2.7 6-6 6H2506c-3.3 0-6-2.68-6-6z" stroke="#5e5e5e" stroke-width="3" fill="#fff"/><path d="M3264.34 110h-15v20h15z" stroke="#5e5e5e" fill="#fff"/><path d="M3254.34 113.33h-10v3.34h10zm0 10h-10v3.34h10z" stroke="#5e5e5e" fill="#fff"/><use xlink:href="#a" transform="matrix(1,0,0,1,2500,100) translate(8.01 22.787777777777777)"/><path d="M2720 143.32c0-3.3 2.7-6 6-6h268c3.32 0 6 2.7 6 6v48c0 3.32-2.68 6-6 6h-268c-3.3 0-6-2.68-6-6z" stroke="#5e5e5e" stroke-width="3" fill="#fff"/><path d="M2700 148.32c0-3.3 2.7-6 6-6h28c3.32 0 6 2.7 6 6v8c0 3.32-2.68 6-6 6h-28c-3.3 0-6-2.68-6-6zM2700 178.32c0-3.3 2.7-6 6-6h28c3.32 0 6 2.7 6 6v8c0 3.32-2.68 6-6 6h-28c-3.3 0-6-2.68-6-6z" stroke="#5e5e5e" stroke-width="3" fill="#fff"/><use xlink:href="#b" transform="matrix(1,0,0,1,2760.0039971092656,143.32407407407393) translate(16.882716049382722 28.444444444444443)"/><path d="M2720 280.4c0-3.3 2.7-6 6-6h268c3.3 0 6 2.7 6 6v48c0 3.32-2.7 6-6 6h-268c-3.3 0-6-2.68-6-6z" stroke="#5e5e5e" stroke-width="3" fill="#fff"/><path d="M2700 285.4c0-3.3 2.7-6 6-6h28c3.3 0 6 2.7 6 6v8c0 3.32-2.7 6-6 6h-28c-3.3 0-6-2.68-6-6zM2700 315.4c0-3.3 2.7-6 6-6h28c3.3 0 6 2.7 6 6v8c0 3.32-2.7 6-6 6h-28c-3.3 0-6-2.68-6-6z" stroke="#5e5e5e" stroke-width="3" fill="#fff"/><use xlink:href="#c" transform="matrix(1,0,0,1,2760,280.40675123942833) translate(-3.4876543209876445 28.444444444444443)"/><path d="M2540 431.9c0-3.3 2.7-6 6-6h268c3.32 0 6 2.7 6 6v48c0 3.32-2.68 6-6 6h-268c-3.3 0-6-2.68-6-6z" stroke="#5e5e5e" stroke-width="3" fill="#fff"/><path d="M2520 436.9c0-3.3 2.7-6 6-6h28c3.32 0 6 2.7 6 6v8c0 3.32-2.68 6-6 6h-28c-3.3 0-6-2.68-6-6zM2520 466.9c0-3.3 2.7-6 6-6h28c3.32 0 6 2.7 6 6v8c0 3.32-2.68 6-6 6h-28c-3.3 0-6-2.68-6-6z" stroke="#5e5e5e" stroke-width="3" fill="#fff"/><use xlink:href="#d" transform="matrix(1,0,0,1,2580.0039971092656,431.90675123942844) translate(51.94444444444444 28.444444444444443)"/><path d="M2900 431.9c0-3.3 2.7-6 6-6h268c3.32 0 6 2.7 6 6v48c0 3.32-2.68 6-6 6h-268c-3.3 0-6-2.68-6-6z" stroke="#5e5e5e" stroke-width="3" fill="#fff"/><path d="M2880 436.9c0-3.3 2.7-6 6-6h28c3.32 0 6 2.7 6 6v8c0 3.32-2.68 6-6 6h-28c-3.3 0-6-2.68-6-6zM2880 466.9c0-3.3 2.7-6 6-6h28c3.32 0 6 2.7 6 6v8c0 3.32-2.68 6-6 6h-28c-3.3 0-6-2.68-6-6z" stroke="#5e5e5e" stroke-width="3" fill="#fff"/><use xlink:href="#e" transform="matrix(1,0,0,1,2940.0039971092656,431.90675123942844) translate(48.888888888888886 28.444444444444443)"/><path d="M2850 205.82v11M2850 250.82v5" stroke="#5e5e5e" stroke-width="3" fill="none"/><path d="M2864 230.82c0 7.74-6.27 14-14 14s-14-6.26-14-14c0-7.73 6.27-14 14-14s14 6.27 14 14z" stroke="#5e5e5e" stroke-width="3" fill="#fff"/><path d="M2830 230.82c0 11.05 8.95 20 20 20s20-8.95 20-20" stroke="#5e5e5e" stroke-width="3" fill="none"/><path d="M2850 205.82c.44 0 .8.36.8.8v9.4c0 .45-.36.8-.8.8-.44 0-.8-.35-.8-.8v-9.4c0-.44.36-.8.8-.8z" fill="none"/><path d="M2850 257.32v14.09" stroke="#5e5e5e" stroke-width="3" fill="none"/><path d="M2851.5 257.36h-3v-1.54h3v-3M2851.5 272.9h-3v-1.53h3" fill="#5e5e5e"/><path d="M2850 204.32v-2.53c0-.13.1-.23.22-.23s.2-.1.2-.2v-2.55" stroke="#5e5e5e" stroke-width="3" fill="none"/><path d="M2851.5 208.82v-3h-3v-1.53h3" fill="#5e5e5e"/><path d="M2850.43 198.86v-1.54M2850 342.9v11M2850 387.9v5" stroke="#5e5e5e" stroke-width="3" fill="none"/><path d="M2864 367.9c0 7.74-6.26 14-14 14-7.73 0-14-6.26-14-14 0-7.73 6.27-14 14-14 7.74 0 14 6.27 14 14z" stroke="#5e5e5e" stroke-width="3" fill="#fff"/><path d="M2830 367.9c0 11.05 8.96 20 20 20 11.05 0 20-8.95 20-20" stroke="#5e5e5e" stroke-width="3" fill="none"/><path d="M2850 342.9c.45 0 .8.36.8.8v9.4c0 .45-.35.8-.8.8-.44 0-.8-.35-.8-.8v-9.4c0-.44.36-.8.8-.8z" fill="none"/><path d="M2850 394.4v8.26c0 3.3-2.68 6-6 6h-168c-3.3 0-6 2.68-6 6v8.25" stroke="#5e5e5e" stroke-width="3" fill="none"/><path d="M2851.5 394.45h-3v-1.54h3v-3M2671.5 424.4h-3v-1.53h3" fill="#5e5e5e"/><path d="M2850 341.4v-2.53c0-.12.1-.2.22-.2s.22-.1.22-.23v-2.53" stroke="#5e5e5e" stroke-width="3" fill="none"/><path d="M2851.5 345.9v-3h-3v-1.53h3" fill="#5e5e5e"/><path d="M2850.44 335.95v-1.54M3030 422.9v-8.24c0-3.32-2.68-6-6-6h-168c-3.3 0-6-2.7-6-6v-8.25" stroke="#5e5e5e" stroke-width="3" fill="none"/><path d="M3031.5 424.4h-3v-1.53h3M2851.5 394.45h-3v-1.54h3" fill="#5e5e5e"/><path d="M3030 573.18V488.9M3019.82 555.75l10.18 17.2 10.18-17.2" stroke="#5e5e5e" stroke-width="3" fill="none"/><path d="M3031.5 488.95h-3v-1.54h3" fill="#5e5e5e"/><path d="M2670 573.18V488.9M2659.82 555.75l10.18 17.2 10.18-17.2" stroke="#5e5e5e" stroke-width="3" fill="none"/><path d="M2671.5 488.95h-3v-1.54h3" fill="#5e5e5e"/><path d="M3030 641.53v10.88m0 43.5c-11.05 0-20-9.73-20-21.74 0-12.02 8.95-21.75 20-21.75s20 9.74 20 21.76c0 12-8.95 21.75-20 21.75z" stroke="#5e5e5e" stroke-width="3" fill="#fff"/><path d="M3030.8 641.53v10.88h-1.6v-10.87z" fill="none"/><path d="M3030 640.03V620.4" stroke="#5e5e5e" stroke-width="3" fill="none"/><path d="M3028.5 641.53V640h3v1.53M3031.5 620.45h-3v-1.54h3" fill="#5e5e5e"/><path d="M2670 639.9v10.88m0 43.5c-11.04 0-20-9.74-20-21.75 0-12.02 8.96-21.75 20-21.75 11.05 0 20 9.73 20 21.75 0 12-8.95 21.75-20 21.75z" stroke="#5e5e5e" stroke-width="3" fill="#fff"/><path d="M2670.8 639.9v10.88h-1.6V639.9z" fill="none"/><path d="M2670 638.4v-18" stroke="#5e5e5e" stroke-width="3" fill="none"/><path d="M2668.5 639.9v-1.54h3v1.54M2671.5 620.45h-3v-1.54h3" fill="#5e5e5e"/><path d="M3183 455.9h71.05" stroke="#5e5e5e" stroke-width="3" fill="none"/><path d="M3183.04 457.4h-1.54v-3h1.54" fill="#5e5e5e"/><path d="M3236.62 466.1l17.2-10.2-17.2-10.17M2823 455.9h15.5c3.32 0 6 2.7 6 6v48c0 3.32 2.7 6 6 6h403.55" stroke="#5e5e5e" stroke-width="3" fill="none"/><path d="M2823.04 457.4h-1.54v-3h1.54" fill="#5e5e5e"/><path d="M3236.62 526.1l17.2-10.2-17.2-10.17" stroke="#5e5e5e" stroke-width="3" fill="none"/><path d="M3258.28 501.9c0-3.3 2.7-6 6-6h25c3.3 0 6 2.7 6 6v28c0 3.32-2.7 6-6 6h-25c-3.3 0-6-2.68-6-6zM3258.28 441.9c0-3.3 2.7-6 6-6h25c3.3 0 6 2.7 6 6v28c0 3.32-2.7 6-6 6h-25c-3.3 0-6-2.68-6-6zM3258.28 291.2c0-3.32 2.7-6 6-6h25c3.3 0 6 2.68 6 6v28c0 3.3-2.7 6-6 6h-25c-3.3 0-6-2.7-6-6zM3258.28 153.32c0-3.3 2.7-6 6-6h25c3.3 0 6 2.7 6 6v28c0 3.32-2.7 6-6 6h-25c-3.3 0-6-2.68-6-6zM3010 583.4c0-3.3 2.7-6 6-6h28c3.32 0 6 2.7 6 6v28c0 3.32-2.68 6-6 6h-28c-3.3 0-6-2.68-6-6zM2650 583.4c0-3.3 2.7-6 6-6h28c3.32 0 6 2.7 6 6v28c0 3.32-2.68 6-6 6h-28c-3.3 0-6-2.68-6-6z" stroke="#5e5e5e" stroke-width="3" fill="#fff"/><path d="M3003 304.4H3254.04" stroke="#5e5e5e" stroke-width="3" fill="none"/><path d="M3003.04 305.9h-1.54v-3h1.54" fill="#5e5e5e"/><path d="M3236.62 314.58l17.2-10.18-17.2-10.18M3003 167.32h251.05" stroke="#5e5e5e" stroke-width="3" fill="none"/><path d="M3003.04 168.82h-1.54v-3h1.54" fill="#5e5e5e"/><path d="M3236.62 177.5l17.2-10.18-17.2-10.18M3298.27 167.32h32.5" stroke="#5e5e5e" stroke-width="3" fill="none"/><path d="M3298.3 168.82h-1.53v-3h1.54M3332.26 168.82h-1.54v-3h1.54" fill="#5e5e5e"/><g fill="none"><path d="M3341.5 167.32h-9.24m27.74 20c-10.2 0-18.5-8.95-18.5-20 0-11.04 8.3-20 18.5-20" stroke="#5e5e5e" stroke-width="3"/><path d="M3360 187.32c-10.2 0-18.5-8.95-18.5-20 0-11.04 8.3-20 18.5-20z"/><path d="M3341.5 167.32c0 .45-.35.8-.8.8h-7.64c-.44 0-.8-.35-.8-.8 0-.44.36-.8.8-.8h7.65c.45 0 .8.36.8.8z"/></g><path d="M3298.16 305.2h32.6M3298.2 305.2h-1.54" stroke="#5e5e5e" stroke-width="3" fill="none"/><path d="M3332.26 306.7h-1.54v-3h1.54" fill="#5e5e5e"/><g fill="none"><path d="M3341.5 305.2h-9.24m27.74 20c-10.2 0-18.5-8.96-18.5-20 0-11.05 8.3-20 18.5-20" stroke="#5e5e5e" stroke-width="3"/><path d="M3360 325.2c-10.2 0-18.5-8.96-18.5-20 0-11.05 8.3-20 18.5-20z"/><path d="M3341.5 305.2c0 .44-.35.8-.8.8h-7.64c-.44 0-.8-.36-.8-.8 0-.44.36-.8.8-.8h7.65c.45 0 .8.36.8.8z"/></g><path d="M3298.16 455.9h32.6M3298.2 455.9h-1.54" stroke="#5e5e5e" stroke-width="3" fill="none"/><path d="M3332.26 457.4h-1.54v-3h1.54" fill="#5e5e5e"/><g fill="none"><path d="M3341.5 455.9h-9.24m27.74 20c-10.2 0-18.5-8.95-18.5-20 0-11.04 8.3-20 18.5-20" stroke="#5e5e5e" stroke-width="3"/><path d="M3360 475.9c-10.2 0-18.5-8.95-18.5-20 0-11.04 8.3-20 18.5-20z"/><path d="M3341.5 455.9c0 .45-.35.8-.8.8h-7.64c-.44 0-.8-.35-.8-.8 0-.44.36-.8.8-.8h7.65c.45 0 .8.36.8.8z"/></g><path d="M3298.16 515.9h32.6M3298.2 515.9h-1.54" stroke="#5e5e5e" stroke-width="3" fill="none"/><path d="M3332.26 517.4h-1.54v-3h1.54" fill="#5e5e5e"/><g fill="none"><path d="M3341.5 515.9h-9.24m27.74 20c-10.2 0-18.5-8.95-18.5-20 0-11.04 8.3-20 18.5-20" stroke="#5e5e5e" stroke-width="3"/><path d="M3360 535.9c-10.2 0-18.5-8.95-18.5-20 0-11.04 8.3-20 18.5-20z"/><path d="M3341.5 515.9c0 .45-.35.8-.8.8h-7.64c-.44 0-.8-.35-.8-.8 0-.44.36-.8.8-.8h7.65c.45 0 .8.36.8.8z"/></g><path d="M3332.26 143.32c0-3.3 2.68-6 6-6h228c3.3 0 6 2.7 6 6v48c0 3.32-2.7 6-6 6h-228c-3.32 0-6-2.68-6-6z" stroke="#000" stroke-opacity="0" stroke-width="3" fill="#fff" fill-opacity="0"/><g><use xlink:href="#f" transform="matrix(1,0,0,1,3337.2580645161293,142.32407407407393) translate(38.02469135802468 30.27777777777778)"/><use xlink:href="#g" transform="matrix(1,0,0,1,3337.2580645161293,142.32407407407393) translate(107.03703703703702 30.27777777777778)"/></g><path d="M3340 280.4c0-3.3 2.7-6 6-6h228c3.3 0 6 2.7 6 6v48c0 3.32-2.7 6-6 6h-228c-3.3 0-6-2.68-6-6z" stroke="#000" stroke-opacity="0" stroke-width="3" fill="#fff" fill-opacity="0"/><g><use xlink:href="#h" transform="matrix(1,0,0,1,3345,279.40675123942833) translate(14.567901234567898 30.27777777777778)"/><use xlink:href="#g" transform="matrix(1,0,0,1,3345,279.40675123942833) translate(130.49382716049382 30.27777777777778)"/></g><path d="M3332.26 431.9c0-3.3 2.68-6 6-6h228c3.3 0 6 2.7 6 6v48c0 3.32-2.7 6-6 6h-228c-3.32 0-6-2.68-6-6z" stroke="#000" stroke-opacity="0" stroke-width="3" fill="#fff" fill-opacity="0"/><g><use xlink:href="#i" transform="matrix(1,0,0,1,3337.2580645161293,430.90675123942844) translate(30.586419753086417 30.27777777777778)"/><use xlink:href="#g" transform="matrix(1,0,0,1,3337.2580645161293,430.90675123942844) translate(114.4753086419753 30.27777777777778)"/></g><path d="M3332.26 491.9c0-3.3 2.68-6 6-6h228c3.3 0 6 2.7 6 6v48c0 3.32-2.7 6-6 6h-228c-3.32 0-6-2.68-6-6z" stroke="#000" stroke-opacity="0" stroke-width="3" fill="#fff" fill-opacity="0"/><g><use xlink:href="#j" transform="matrix(1,0,0,1,3337.2580645161293,490.90675123942833) translate(26.234567901234556 30.27777777777778)"/><use xlink:href="#g" transform="matrix(1,0,0,1,3337.2580645161293,490.90675123942833) translate(118.82716049382715 30.27777777777778)"/></g><defs><path fill="#333" d="M233-177c-1 41-23 64-60 70L243 0h-38l-65-103H63V0H30v-248c88 3 205-21 203 71zM63-129c60-2 137 13 137-47 0-61-80-42-137-45v92" id="k"/><path fill="#333" d="M100-194c63 0 86 42 84 106H49c0 40 14 67 53 68 26 1 43-12 49-29l28 8c-11 28-37 45-77 45C44 4 14-33 15-96c1-61 26-98 85-98zm52 81c6-60-76-77-97-28-3 7-6 17-6 28h103" id="l"/><path fill="#333" d="M96-169c-40 0-48 33-48 73s9 75 48 75c24 0 41-14 43-38l32 2c-6 37-31 61-74 61-59 0-76-41-82-99-10-93 101-131 147-64 4 7 5 14 7 22l-32 3c-4-21-16-35-41-35" id="m"/><path fill="#333" d="M100-194c62-1 85 37 85 99 1 63-27 99-86 99S16-35 15-95c0-66 28-99 85-99zM99-20c44 1 53-31 53-75 0-43-8-75-51-75s-53 32-53 75 10 74 51 75" id="n"/><path fill="#333" d="M114-163C36-179 61-72 57 0H25l-1-190h30c1 12-1 29 2 39 6-27 23-49 58-41v29" id="o"/><path fill="#333" d="M85-194c31 0 48 13 60 33l-1-100h32l1 261h-30c-2-10 0-23-3-31C134-8 116 4 85 4 32 4 16-35 15-94c0-66 23-100 70-100zm9 24c-40 0-46 34-46 75 0 40 6 74 45 74 42 0 51-32 51-76 0-42-9-74-50-73" id="p"/><path fill="#333" d="M24-231v-30h32v30H24zM24 0v-190h32V0H24" id="q"/><path fill="#333" d="M117-194c89-4 53 116 60 194h-32v-121c0-31-8-49-39-48C34-167 62-67 57 0H25l-1-190h30c1 10-1 24 2 32 11-22 29-35 61-36" id="r"/><path fill="#333" d="M177-190C167-65 218 103 67 71c-23-6-38-20-44-43l32-5c15 47 100 32 89-28v-30C133-14 115 1 83 1 29 1 15-40 15-95c0-56 16-97 71-98 29-1 48 16 59 35 1-10 0-23 2-32h30zM94-22c36 0 50-32 50-73 0-42-14-75-50-75-39 0-46 34-46 75s6 73 46 73" id="s"/><g id="a"><use transform="matrix(0.06172839506172839,0,0,0.06172839506172839,0,0)" xlink:href="#k"/><use transform="matrix(0.06172839506172839,0,0,0.06172839506172839,15.987654320987653,0)" xlink:href="#l"/><use transform="matrix(0.06172839506172839,0,0,0.06172839506172839,28.333333333333332,0)" xlink:href="#m"/><use transform="matrix(0.06172839506172839,0,0,0.06172839506172839,39.44444444444444,0)" xlink:href="#n"/><use transform="matrix(0.06172839506172839,0,0,0.06172839506172839,51.79012345679012,0)" xlink:href="#o"/><use transform="matrix(0.06172839506172839,0,0,0.06172839506172839,59.1358024691358,0)" xlink:href="#p"/><use transform="matrix(0.06172839506172839,0,0,0.06172839506172839,71.48148148148148,0)" xlink:href="#q"/><use transform="matrix(0.06172839506172839,0,0,0.06172839506172839,76.35802469135803,0)" xlink:href="#r"/><use transform="matrix(0.06172839506172839,0,0,0.06172839506172839,88.70370370370371,0)" xlink:href="#s"/></g><path fill="#333" d="M30 0v-248h33v221h125V0H30" id="t"/><path fill="#333" d="M141-36C126-15 110 5 73 4 37 3 15-17 15-53c-1-64 63-63 125-63 3-35-9-54-41-54-24 1-41 7-42 31l-33-3c5-37 33-52 76-52 45 0 72 20 72 64v82c-1 20 7 32 28 27v20c-31 9-61-2-59-35zM48-53c0 20 12 33 32 33 41-3 63-29 60-74-43 2-92-5-92 41" id="u"/><path fill="#333" d="M24 0v-261h32V0H24" id="v"/><path fill="#333" d="M59-47c-2 24 18 29 38 22v24C64 9 27 4 27-40v-127H5v-23h24l9-43h21v43h35v23H59v120" id="w"/><path fill="#333" d="M179-190L93 31C79 59 56 82 12 73V49c39 6 53-20 64-50L1-190h34L92-34l54-156h33" id="x"/><g id="b"><use transform="matrix(0.06172839506172839,0,0,0.06172839506172839,0,0)" xlink:href="#t"/><use transform="matrix(0.06172839506172839,0,0,0.06172839506172839,12.345679012345679,0)" xlink:href="#n"/><use transform="matrix(0.06172839506172839,0,0,0.06172839506172839,24.691358024691358,0)" xlink:href="#m"/><use transform="matrix(0.06172839506172839,0,0,0.06172839506172839,35.80246913580247,0)" xlink:href="#u"/><use transform="matrix(0.06172839506172839,0,0,0.06172839506172839,48.148148148148145,0)" xlink:href="#v"/><use transform="matrix(0.06172839506172839,0,0,0.06172839506172839,53.02469135802469,0)" xlink:href="#q"/><use transform="matrix(0.06172839506172839,0,0,0.06172839506172839,57.901234567901234,0)" xlink:href="#w"/><use transform="matrix(0.06172839506172839,0,0,0.06172839506172839,64.07407407407408,0)" xlink:href="#x"/><use transform="matrix(0.06172839506172839,0,0,0.06172839506172839,75.18518518518519,0)" xlink:href="#k"/><use transform="matrix(0.06172839506172839,0,0,0.06172839506172839,91.17283950617285,0)" xlink:href="#l"/><use transform="matrix(0.06172839506172839,0,0,0.06172839506172839,103.51851851851853,0)" xlink:href="#m"/><use transform="matrix(0.06172839506172839,0,0,0.06172839506172839,114.62962962962965,0)" xlink:href="#n"/><use transform="matrix(0.06172839506172839,0,0,0.06172839506172839,126.97530864197533,0)" xlink:href="#o"/><use transform="matrix(0.06172839506172839,0,0,0.06172839506172839,134.32098765432102,0)" xlink:href="#p"/><use transform="matrix(0.06172839506172839,0,0,0.06172839506172839,146.66666666666669,0)" xlink:href="#q"/><use transform="matrix(0.06172839506172839,0,0,0.06172839506172839,151.54320987654322,0)" xlink:href="#r"/><use transform="matrix(0.06172839506172839,0,0,0.06172839506172839,163.88888888888889,0)" xlink:href="#s"/></g><path fill="#333" d="M30-248c87 1 191-15 191 75 0 78-77 80-158 76V0H30v-248zm33 125c57 0 124 11 124-50 0-59-68-47-124-48v98" id="y"/><path fill="#333" d="M115-194c55 1 70 41 70 98S169 2 115 4C84 4 66-9 55-30l1 105H24l-1-265h31l2 30c10-21 28-34 59-34zm-8 174c40 0 45-34 45-75s-6-73-45-74c-42 0-51 32-51 76 0 43 10 73 51 73" id="z"/><path fill="#333" d="M135-143c-3-34-86-38-87 0 15 53 115 12 119 90S17 21 10-45l28-5c4 36 97 45 98 0-10-56-113-15-118-90-4-57 82-63 122-42 12 7 21 19 24 35" id="A"/><g id="c"><use transform="matrix(0.06172839506172839,0,0,0.06172839506172839,0,0)" xlink:href="#t"/><use transform="matrix(0.06172839506172839,0,0,0.06172839506172839,12.345679012345679,0)" xlink:href="#n"/><use transform="matrix(0.06172839506172839,0,0,0.06172839506172839,24.691358024691358,0)" xlink:href="#m"/><use transform="matrix(0.06172839506172839,0,0,0.06172839506172839,35.80246913580247,0)" xlink:href="#u"/><use transform="matrix(0.06172839506172839,0,0,0.06172839506172839,48.148148148148145,0)" xlink:href="#v"/><use transform="matrix(0.06172839506172839,0,0,0.06172839506172839,53.02469135802469,0)" xlink:href="#q"/><use transform="matrix(0.06172839506172839,0,0,0.06172839506172839,57.901234567901234,0)" xlink:href="#w"/><use transform="matrix(0.06172839506172839,0,0,0.06172839506172839,64.07407407407408,0)" xlink:href="#x"/><use transform="matrix(0.06172839506172839,0,0,0.06172839506172839,75.18518518518519,0)" xlink:href="#y"/><use transform="matrix(0.06172839506172839,0,0,0.06172839506172839,90,0)" xlink:href="#o"/><use transform="matrix(0.06172839506172839,0,0,0.06172839506172839,97.34567901234568,0)" xlink:href="#l"/><use transform="matrix(0.06172839506172839,0,0,0.06172839506172839,109.69135802469137,0)" xlink:href="#z"/><use transform="matrix(0.06172839506172839,0,0,0.06172839506172839,122.03703703703705,0)" xlink:href="#o"/><use transform="matrix(0.06172839506172839,0,0,0.06172839506172839,129.38271604938274,0)" xlink:href="#n"/><use transform="matrix(0.06172839506172839,0,0,0.06172839506172839,141.7283950617284,0)" xlink:href="#m"/><use transform="matrix(0.06172839506172839,0,0,0.06172839506172839,152.83950617283952,0)" xlink:href="#l"/><use transform="matrix(0.06172839506172839,0,0,0.06172839506172839,165.1851851851852,0)" xlink:href="#A"/><use transform="matrix(0.06172839506172839,0,0,0.06172839506172839,176.2962962962963,0)" xlink:href="#A"/><use transform="matrix(0.06172839506172839,0,0,0.06172839506172839,187.40740740740742,0)" xlink:href="#q"/><use transform="matrix(0.06172839506172839,0,0,0.06172839506172839,192.28395061728395,0)" xlink:href="#r"/><use transform="matrix(0.06172839506172839,0,0,0.06172839506172839,204.62962962962962,0)" xlink:href="#s"/></g><path fill="#333" d="M205 0l-28-72H64L36 0H1l101-248h38L239 0h-34zm-38-99l-47-123c-12 45-31 82-46 123h93" id="B"/><g id="d"><use transform="matrix(0.06172839506172839,0,0,0.06172839506172839,0,0)" xlink:href="#B"/><use transform="matrix(0.06172839506172839,0,0,0.06172839506172839,14.814814814814813,0)" xlink:href="#r"/><use transform="matrix(0.06172839506172839,0,0,0.06172839506172839,27.160493827160494,0)" xlink:href="#r"/><use transform="matrix(0.06172839506172839,0,0,0.06172839506172839,39.50617283950617,0)" xlink:href="#n"/><use transform="matrix(0.06172839506172839,0,0,0.06172839506172839,51.85185185185185,0)" xlink:href="#w"/><use transform="matrix(0.06172839506172839,0,0,0.06172839506172839,58.02469135802469,0)" xlink:href="#u"/><use transform="matrix(0.06172839506172839,0,0,0.06172839506172839,70.37037037037037,0)" xlink:href="#w"/><use transform="matrix(0.06172839506172839,0,0,0.06172839506172839,76.5432098765432,0)" xlink:href="#q"/><use transform="matrix(0.06172839506172839,0,0,0.06172839506172839,81.41975308641975,0)" xlink:href="#r"/><use transform="matrix(0.06172839506172839,0,0,0.06172839506172839,93.76543209876543,0)" xlink:href="#s"/></g><path fill="#333" d="M140-251c81 0 123 46 123 126C263-53 228-8 163 1c7 30 30 48 69 40v23c-55 16-95-15-103-61C56-3 17-48 17-125c0-80 42-126 123-126zm0 227c63 0 89-41 89-101s-29-99-89-99c-61 0-89 39-89 99S79-25 140-24" id="C"/><path fill="#333" d="M84 4C-5 8 30-112 23-190h32v120c0 31 7 50 39 49 72-2 45-101 50-169h31l1 190h-30c-1-10 1-25-2-33-11 22-28 36-60 37" id="D"/><path fill="#333" d="M101-234c-31-9-42 10-38 44h38v23H63V0H32v-167H5v-23h27c-7-52 17-82 69-68v24" id="E"/><g id="e"><use transform="matrix(0.06172839506172839,0,0,0.06172839506172839,0,0)" xlink:href="#C"/><use transform="matrix(0.06172839506172839,0,0,0.06172839506172839,17.28395061728395,0)" xlink:href="#D"/><use transform="matrix(0.06172839506172839,0,0,0.06172839506172839,29.629629629629626,0)" xlink:href="#u"/><use transform="matrix(0.06172839506172839,0,0,0.06172839506172839,41.9753086419753,0)" xlink:href="#r"/><use transform="matrix(0.06172839506172839,0,0,0.06172839506172839,54.32098765432098,0)" xlink:href="#w"/><use transform="matrix(0.06172839506172839,0,0,0.06172839506172839,60.49382716049382,0)" xlink:href="#q"/><use transform="matrix(0.06172839506172839,0,0,0.06172839506172839,65.37037037037037,0)" xlink:href="#E"/><use transform="matrix(0.06172839506172839,0,0,0.06172839506172839,71.5432098765432,0)" xlink:href="#x"/><use transform="matrix(0.06172839506172839,0,0,0.06172839506172839,82.65432098765432,0)" xlink:href="#q"/><use transform="matrix(0.06172839506172839,0,0,0.06172839506172839,87.53086419753086,0)" xlink:href="#r"/><use transform="matrix(0.06172839506172839,0,0,0.06172839506172839,99.87654320987654,0)" xlink:href="#s"/></g><g id="f"><use transform="matrix(0.06172839506172839,0,0,0.06172839506172839,0,0)" xlink:href="#o"/><use transform="matrix(0.06172839506172839,0,0,0.06172839506172839,7.345679012345679,0)" xlink:href="#l"/><use transform="matrix(0.06172839506172839,0,0,0.06172839506172839,19.691358024691358,0)" xlink:href="#m"/><use transform="matrix(0.06172839506172839,0,0,0.06172839506172839,30.80246913580247,0)" xlink:href="#n"/><use transform="matrix(0.06172839506172839,0,0,0.06172839506172839,43.148148148148145,0)" xlink:href="#o"/><use transform="matrix(0.06172839506172839,0,0,0.06172839506172839,50.49382716049382,0)" xlink:href="#p"/></g><g id="g"><use transform="matrix(0.06172839506172839,0,0,0.06172839506172839,0,0)" xlink:href="#v"/><use transform="matrix(0.06172839506172839,0,0,0.06172839506172839,4.876543209876543,0)" xlink:href="#n"/><use transform="matrix(0.06172839506172839,0,0,0.06172839506172839,17.22222222222222,0)" xlink:href="#m"/><use transform="matrix(0.06172839506172839,0,0,0.06172839506172839,28.333333333333332,0)" xlink:href="#u"/><use transform="matrix(0.06172839506172839,0,0,0.06172839506172839,40.67901234567901,0)" xlink:href="#v"/><use transform="matrix(0.06172839506172839,0,0,0.06172839506172839,45.55555555555556,0)" xlink:href="#q"/><use transform="matrix(0.06172839506172839,0,0,0.06172839506172839,50.4320987654321,0)" xlink:href="#w"/><use transform="matrix(0.06172839506172839,0,0,0.06172839506172839,56.604938271604944,0)" xlink:href="#q"/><use transform="matrix(0.06172839506172839,0,0,0.06172839506172839,61.48148148148149,0)" xlink:href="#l"/><use transform="matrix(0.06172839506172839,0,0,0.06172839506172839,73.82716049382717,0)" xlink:href="#A"/></g><g id="h"><use transform="matrix(0.06172839506172839,0,0,0.06172839506172839,0,0)" xlink:href="#z"/><use transform="matrix(0.06172839506172839,0,0,0.06172839506172839,12.345679012345679,0)" xlink:href="#o"/><use transform="matrix(0.06172839506172839,0,0,0.06172839506172839,19.691358024691358,0)" xlink:href="#l"/><use transform="matrix(0.06172839506172839,0,0,0.06172839506172839,32.03703703703704,0)" xlink:href="#z"/><use transform="matrix(0.06172839506172839,0,0,0.06172839506172839,44.382716049382715,0)" xlink:href="#o"/><use transform="matrix(0.06172839506172839,0,0,0.06172839506172839,51.72839506172839,0)" xlink:href="#n"/><use transform="matrix(0.06172839506172839,0,0,0.06172839506172839,64.07407407407408,0)" xlink:href="#m"/><use transform="matrix(0.06172839506172839,0,0,0.06172839506172839,75.18518518518519,0)" xlink:href="#l"/><use transform="matrix(0.06172839506172839,0,0,0.06172839506172839,87.53086419753087,0)" xlink:href="#A"/><use transform="matrix(0.06172839506172839,0,0,0.06172839506172839,98.64197530864199,0)" xlink:href="#A"/></g><path fill="#333" d="M145-31C134-9 116 4 85 4 32 4 16-35 15-94c0-59 17-99 70-100 32-1 48 14 60 33 0-11-1-24 2-32h30l-1 268h-32zM93-21c41 0 51-33 51-76s-8-73-50-73c-40 0-46 35-46 75s5 74 45 74" id="F"/><g id="i"><use transform="matrix(0.06172839506172839,0,0,0.06172839506172839,0,0)" xlink:href="#F"/><use transform="matrix(0.06172839506172839,0,0,0.06172839506172839,12.345679012345679,0)" xlink:href="#D"/><use transform="matrix(0.06172839506172839,0,0,0.06172839506172839,24.691358024691358,0)" xlink:href="#u"/><use transform="matrix(0.06172839506172839,0,0,0.06172839506172839,37.03703703703704,0)" xlink:href="#r"/><use transform="matrix(0.06172839506172839,0,0,0.06172839506172839,49.382716049382715,0)" xlink:href="#w"/><use transform="matrix(0.06172839506172839,0,0,0.06172839506172839,55.55555555555556,0)" xlink:href="#q"/><use transform="matrix(0.06172839506172839,0,0,0.06172839506172839,60.4320987654321,0)" xlink:href="#E"/><use transform="matrix(0.06172839506172839,0,0,0.06172839506172839,66.60493827160494,0)" xlink:href="#x"/></g><g id="j"><use transform="matrix(0.06172839506172839,0,0,0.06172839506172839,0,0)" xlink:href="#u"/><use transform="matrix(0.06172839506172839,0,0,0.06172839506172839,12.345679012345679,0)" xlink:href="#r"/><use transform="matrix(0.06172839506172839,0,0,0.06172839506172839,24.691358024691358,0)" xlink:href="#r"/><use transform="matrix(0.06172839506172839,0,0,0.06172839506172839,37.03703703703704,0)" xlink:href="#n"/><use transform="matrix(0.06172839506172839,0,0,0.06172839506172839,49.382716049382715,0)" xlink:href="#w"/><use transform="matrix(0.06172839506172839,0,0,0.06172839506172839,55.55555555555556,0)" xlink:href="#u"/><use transform="matrix(0.06172839506172839,0,0,0.06172839506172839,67.90123456790124,0)" xlink:href="#w"/><use transform="matrix(0.06172839506172839,0,0,0.06172839506172839,74.07407407407408,0)" xlink:href="#l"/></g></defs></g></svg>