<svg xmlns="http://www.w3.org/2000/svg" xmlns:xlink="http://www.w3.org/1999/xlink" xmlns:lucid="lucid" width="921" height="714"><g transform="translate(-5870 -127)" lucid:page-tab-id="0_0"><path d="M6080 186c0-3.3 2.7-6 6-6h228c3.3 0 6 2.7 6 6v264.15c0 3.3-2.7 6-6 6h-228c-3.3 0-6-2.7-6-6z" stroke="#5e5e5e" stroke-width="3" fill="#fff"/><path d="M6310 190h-15v20h15z" stroke="#5e5e5e" fill="#fff"/><path d="M6300 193.33h-10v3.34h10zm0 10h-10v3.34h10z" stroke="#5e5e5e" fill="#fff"/><use xlink:href="#a" transform="matrix(1,0,0,1,6080,179.99999999999994) translate(69.4803086419753 143.29340277777777)"/><path d="M6256.5 494.9v11M6256.5 539.9v5" stroke="#5e5e5e" stroke-width="3" fill="none"/><path d="M6270.5 519.9c0 7.73-6.26 14-14 14-7.73 0-14-6.27-14-14s6.27-14 14-14c7.74 0 14 6.27 14 14z" stroke="#5e5e5e" stroke-width="3" fill="#fff"/><path d="M6236.5 519.9c0 11.05 8.96 20 20 20 11.05 0 20-8.95 20-20" stroke="#5e5e5e" stroke-width="3" fill="none"/><path d="M6256.5 494.9c.45 0 .8.36.8.8v9.4c0 .44-.35.8-.8.8-.44 0-.8-.36-.8-.8v-9.4c0-.44.36-.8.8-.8z" fill="none"/><path d="M6256.5 493.4v-14.92" stroke="#5e5e5e" stroke-width="3" fill="none"/><path d="M6255 494.9v-1.54h3v1.54M6258 478.52h-3v-1.54h3" fill="#5e5e5e"/><path d="M6082.3 581.48c0-3.3 2.67-6 6-6H6314c3.32 0 6 2.7 6 6v66.6c0 3.3-2.68 6-6 6h-225.7c-3.33 0-6-2.7-6-6z" stroke="#5e5e5e" stroke-width="3" fill="#fff"/><path d="M6062.3 591.13c0-3.3 2.67-6 6-6h28c3.3 0 6 2.7 6 6v8c0 3.3-2.7 6-6 6h-28c-3.33 0-6-2.7-6-6zM6062.3 630.42c0-3.3 2.67-6 6-6h28c3.3 0 6 2.7 6 6v8c0 3.3-2.7 6-6 6h-28c-3.33 0-6-2.7-6-6z" stroke="#5e5e5e" stroke-width="3" fill="#fff"/><use xlink:href="#b" transform="matrix(1,0,0,1,6113.8307687628085,583.3418418341543) translate(19.604938271604937 35.94444444444444)"/><path d="M6082.3 733.32c0-3.3 2.68-6 6-6H6314c3.32 0 6 2.7 6 6v66.6c0 3.3-2.68 6-6 6h-225.7c-3.32 0-6-2.7-6-6z" stroke="#5e5e5e" stroke-width="3" fill="#fff"/><path d="M6062.3 742.97c0-3.3 2.68-6 6-6h28c3.3 0 6 2.7 6 6v8c0 3.3-2.7 6-6 6h-28c-3.32 0-6-2.7-6-6zM6062.3 782.26c0-3.3 2.68-6 6-6h28c3.3 0 6 2.7 6 6v8c0 3.32-2.7 6-6 6h-28c-3.32 0-6-2.68-6-6z" stroke="#5e5e5e" stroke-width="3" fill="#fff"/><use xlink:href="#c" transform="matrix(1,0,0,1,6113.833966450224,735.1827319406992) translate(2.3518518518518476 35.94444444444444)"/><use xlink:href="#d" transform="matrix(1,0,0,1,6113.833966450224,735.1827319406992) translate(92.35185185185185 35.94444444444444)"/><path d="M6256.5 546.4v26.08" stroke="#5e5e5e" stroke-width="3" fill="none"/><path d="M6258 546.44h-3v-1.54h3v-3M6258 573.98h-3v-1.53h3" fill="#5e5e5e"/><path d="M6191.15 663.03v11M6191.15 708.03v5" stroke="#5e5e5e" stroke-width="3" fill="none"/><path d="M6205.15 688.03c0 7.74-6.27 14-14 14s-14-6.26-14-14c0-7.73 6.27-14 14-14s14 6.27 14 14z" stroke="#5e5e5e" stroke-width="3" fill="#fff"/><path d="M6171.15 688.03c0 11.05 8.95 20 20 20 11.04 0 20-8.95 20-20" stroke="#5e5e5e" stroke-width="3" fill="none"/><path d="M6191.15 663.03c.44 0 .8.36.8.8v9.4c0 .44-.36.8-.8.8-.44 0-.8-.36-.8-.8v-9.4c0-.44.36-.8.8-.8z" fill="none"/><path d="M6191.15 661.53v-4.46" stroke="#5e5e5e" stroke-width="3" fill="none"/><path d="M6189.65 663.03v-1.54h3v1.53M6192.65 657.1h-3v-1.53h3" fill="#5e5e5e"/><path d="M6191.15 714.53v9.8" stroke="#5e5e5e" stroke-width="3" fill="none"/><path d="M6192.65 714.57h-3v-1.54h3M6192.65 725.82h-3v-1.53h3" fill="#5e5e5e"/><path d="M6526.5 182.15c0-3.3 2.7-6 6-6h223.44c3.3 0 6 2.7 6 6v66.58c0 3.32-2.7 6-6 6H6532.5c-3.3 0-6-2.68-6-6z" stroke="#5e5e5e" stroke-width="3" fill="#fff"/><path d="M6506.5 191.8c0-3.32 2.7-6 6-6h28c3.32 0 6 2.68 6 6v8c0 3.3-2.68 6-6 6h-28c-3.3 0-6-2.7-6-6zM6506.5 231.1c0-3.33 2.7-6 6-6h28c3.32 0 6 2.67 6 6v8c0 3.3-2.68 6-6 6h-28c-3.3 0-6-2.7-6-6z" stroke="#5e5e5e" stroke-width="3" fill="#fff"/><use xlink:href="#e" transform="matrix(1,0,0,1,6557.591990517314,184.00713606347082) translate(6.320987654320987 35.94444444444444)"/><path d="M6496.5 215.74h-11M6451.5 215.74h-5" stroke="#5e5e5e" stroke-width="3" fill="none"/><path d="M6471.5 229.74c-7.73 0-14-6.27-14-14 0-7.74 6.27-14 14-14 7.74 0 14 6.26 14 14 0 7.73-6.26 14-14 14z" stroke="#5e5e5e" stroke-width="3" fill="#fff"/><path d="M6471.5 195.74c-11.04 0-20 8.95-20 20 0 11.04 8.96 20 20 20" stroke="#5e5e5e" stroke-width="3" fill="none"/><path d="M6496.5 215.74c0 .44-.35.8-.8.8h-9.4c-.44 0-.8-.36-.8-.8 0-.45.36-.8.8-.8h9.4c.45 0 .8.35.8.8z" fill="none"/><path d="M6496.5 215.74" stroke="#5e5e5e" stroke-width="3" fill="none"/><path fill="#5e5e5e"/><path fill="#5e5e5e"/><path d="M6498 215.74h25.5" stroke="#5e5e5e" stroke-width="3" fill="none"/><path d="M6498.04 217.24h-4.53 3v-3h1.54M6525 217.24h-1.53v-3h1.54" fill="#5e5e5e"/><path d="M6526.5 260.73c0-3.3 2.7-6 6-6h223.44c3.3 0 6 2.7 6 6v66.58c0 3.33-2.7 6-6 6H6532.5c-3.3 0-6-2.67-6-6z" stroke="#5e5e5e" stroke-width="3" fill="#fff"/><path d="M6506.5 270.38c0-3.32 2.7-6 6-6h28c3.32 0 6 2.68 6 6v8c0 3.3-2.68 6-6 6h-28c-3.3 0-6-2.7-6-6zM6506.5 309.67c0-3.32 2.7-6 6-6h28c3.32 0 6 2.68 6 6v8c0 3.3-2.68 6-6 6h-28c-3.3 0-6-2.7-6-6z" stroke="#5e5e5e" stroke-width="3" fill="#fff"/><use xlink:href="#f" transform="matrix(1,0,0,1,6557.591990517314,262.5898132288253) translate(-14.04938271604938 35.94444444444444)"/><path d="M6496.5 294.9h-11M6451.5 294.9h-5" stroke="#5e5e5e" stroke-width="3" fill="none"/><path d="M6471.5 308.9c-7.73 0-14-6.27-14-14s6.27-14 14-14c7.74 0 14 6.27 14 14s-6.26 14-14 14z" stroke="#5e5e5e" stroke-width="3" fill="#fff"/><path d="M6471.5 274.9c-11.04 0-20 8.96-20 20 0 11.05 8.96 20 20 20" stroke="#5e5e5e" stroke-width="3" fill="none"/><path d="M6496.5 294.9c0 .44-.35.8-.8.8h-9.4c-.44 0-.8-.36-.8-.8 0-.44.36-.8.8-.8h9.4c.45 0 .8.36.8.8z" fill="none"/><path d="M6496.5 294.9" stroke="#5e5e5e" stroke-width="3" fill="none"/><path fill="#5e5e5e"/><path fill="#5e5e5e"/><path d="M6498 294.9h25.5" stroke="#5e5e5e" stroke-width="3" fill="none"/><path d="M6498.04 296.4h-4.53 3v-3h1.54M6525 296.4h-1.53v-3h1.54" fill="#5e5e5e"/><path d="M6526.5 339.44c0-3.3 2.7-6 6-6h223.44c3.3 0 6 2.7 6 6v66.58c0 3.32-2.7 6-6 6H6532.5c-3.3 0-6-2.68-6-6z" stroke="#5e5e5e" stroke-width="3" fill="#fff"/><path d="M6506.5 349.1c0-3.33 2.7-6 6-6h28c3.32 0 6 2.67 6 6v8c0 3.3-2.68 6-6 6h-28c-3.3 0-6-2.7-6-6zM6506.5 388.38c0-3.32 2.7-6 6-6h28c3.32 0 6 2.68 6 6v8c0 3.3-2.68 6-6 6h-28c-3.3 0-6-2.7-6-6z" stroke="#5e5e5e" stroke-width="3" fill="#fff"/><use xlink:href="#g" transform="matrix(1,0,0,1,6557.591990517314,341.29847464614784) translate(41.382716049382715 35.94444444444444)"/><path d="M6496.5 374.07h-11M6451.5 374.07h-5" stroke="#5e5e5e" stroke-width="3" fill="none"/><path d="M6471.5 388.07c-7.73 0-14-6.27-14-14 0-7.74 6.27-14 14-14 7.74 0 14 6.26 14 14 0 7.73-6.26 14-14 14z" stroke="#5e5e5e" stroke-width="3" fill="#fff"/><path d="M6471.5 354.07c-11.04 0-20 8.95-20 20 0 11.04 8.96 20 20 20" stroke="#5e5e5e" stroke-width="3" fill="none"/><path d="M6496.5 374.07c0 .44-.35.8-.8.8h-9.4c-.44 0-.8-.36-.8-.8 0-.45.36-.8.8-.8h9.4c.45 0 .8.35.8.8z" fill="none"/><path d="M6496.5 374.07" stroke="#5e5e5e" stroke-width="3" fill="none"/><path fill="#5e5e5e"/><path fill="#5e5e5e"/><path d="M6498 374.07h25.5" stroke="#5e5e5e" stroke-width="3" fill="none"/><path d="M6498.04 375.57h-4.53 3v-3h1.54M6525 375.57h-1.53v-3h1.54" fill="#5e5e5e"/><path d="M6526.5 418.02c0-3.3 2.7-6 6-6h223.44c3.3 0 6 2.7 6 6v66.6c0 3.3-2.7 6-6 6H6532.5c-3.3 0-6-2.7-6-6z" stroke="#5e5e5e" stroke-width="3" fill="#fff"/><path d="M6506.5 427.67c0-3.32 2.7-6 6-6h28c3.32 0 6 2.68 6 6v8c0 3.3-2.68 6-6 6h-28c-3.3 0-6-2.7-6-6zM6506.5 466.96c0-3.3 2.7-6 6-6h28c3.32 0 6 2.7 6 6v8c0 3.3-2.68 6-6 6h-28c-3.3 0-6-2.7-6-6z" stroke="#5e5e5e" stroke-width="3" fill="#fff"/><use xlink:href="#h" transform="matrix(1,0,0,1,6557.591990517314,419.8811518115025) translate(41.44444444444444 35.94444444444444)"/><path d="M6496.5 451.3h-11M6451.5 451.3h-5" stroke="#5e5e5e" stroke-width="3" fill="none"/><path d="M6471.5 465.3c-7.73 0-14-6.25-14-14 0-7.72 6.27-14 14-14 7.74 0 14 6.28 14 14 0 7.75-6.26 14-14 14z" stroke="#5e5e5e" stroke-width="3" fill="#fff"/><path d="M6471.5 431.3c-11.04 0-20 8.97-20 20 0 11.06 8.96 20 20 20" stroke="#5e5e5e" stroke-width="3" fill="none"/><path d="M6496.5 451.3c0 .46-.35.8-.8.8h-9.4c-.44 0-.8-.34-.8-.8 0-.43.36-.8.8-.8h9.4c.45 0 .8.37.8.8z" fill="none"/><path d="M6496.5 451.32" stroke="#5e5e5e" stroke-width="3" fill="none"/><path fill="#5e5e5e"/><path fill="#5e5e5e"/><path d="M6498 451.32h25.5" stroke="#5e5e5e" stroke-width="3" fill="none"/><path d="M6498.04 452.82h-4.53 3v-3h1.54M6525 452.82h-1.53v-3h1.54" fill="#5e5e5e"/><path d="M6526.5 583.48c0-3.3 2.7-6 6-6h223.44c3.3 0 6 2.7 6 6v66.58c0 3.32-2.7 6-6 6H6532.5c-3.3 0-6-2.68-6-6z" stroke="#5e5e5e" stroke-width="3" fill="#fff"/><path d="M6506.5 593.13c0-3.32 2.7-6 6-6h28c3.32 0 6 2.68 6 6v8c0 3.3-2.68 6-6 6h-28c-3.3 0-6-2.7-6-6zM6506.5 632.42c0-3.32 2.7-6 6-6h28c3.32 0 6 2.68 6 6v8c0 3.3-2.68 6-6 6h-28c-3.3 0-6-2.7-6-6z" stroke="#5e5e5e" stroke-width="3" fill="#fff"/><use xlink:href="#i" transform="matrix(1,0,0,1,6557.591990517314,585.3378447248887) translate(23.5432098765432 35.94444444444444)"/><path d="M6496.5 614.77h-11M6451.5 614.77h-5" stroke="#5e5e5e" stroke-width="3" fill="none"/><path d="M6471.5 628.77c-7.73 0-14-6.27-14-14s6.27-14 14-14c7.74 0 14 6.27 14 14s-6.26 14-14 14z" stroke="#5e5e5e" stroke-width="3" fill="#fff"/><path d="M6471.5 594.77c-11.04 0-20 8.96-20 20 0 11.05 8.96 20 20 20" stroke="#5e5e5e" stroke-width="3" fill="none"/><path d="M6496.5 614.77c0 .44-.35.8-.8.8h-9.4c-.44 0-.8-.36-.8-.8 0-.44.36-.8.8-.8h9.4c.45 0 .8.36.8.8z" fill="none"/><path d="M6496.5 614.77" stroke="#5e5e5e" stroke-width="3" fill="none"/><path fill="#5e5e5e"/><path fill="#5e5e5e"/><path d="M6498 614.77h25.5" stroke="#5e5e5e" stroke-width="3" fill="none"/><path d="M6498.04 616.27h-4.53 3v-3h1.54M6525 616.27h-1.53v-3h1.54" fill="#5e5e5e"/><path d="M6445 215.74h-46.5c-3.32 0-6 2.7-6 6v19.16c0 3.3-2.7 6-6 6H6340" stroke="#5e5e5e" stroke-width="3" fill="none"/><path d="M6446.5 217.24h3-4.53v-3h1.54M6340.03 248.4h-1.54v-3h1.53" fill="#5e5e5e"/><path d="M6445 294.9h-47.35c-2.84 0-5.15 2.3-5.15 5.16 0 2.85-2.3 5.15-5.16 5.15H6340" stroke="#5e5e5e" stroke-width="3" fill="none"/><path d="M6446.5 296.4h-1.53v-3h1.54M6340.03 306.7h-1.54v-3h1.53" fill="#5e5e5e"/><path d="M6445 374.07h-47.64c-2.7 0-4.86-2.18-4.86-4.86s-2.18-4.85-4.86-4.85H6340" stroke="#5e5e5e" stroke-width="3" fill="none"/><path d="M6446.5 375.57h3-4.53v-3h1.54M6340.03 365.85h-1.54v-3h1.53" fill="#5e5e5e"/><path d="M6445 614.77h-122" stroke="#5e5e5e" stroke-width="3" fill="none"/><path d="M6446.5 616.27h3-4.53v-3h1.54M6323.04 616.27h-1.54v-3h1.54" fill="#5e5e5e"/><path d="M5920 504.9c0-3.32 2.7-6 6-6h188c3.3 0 6 2.68 6 6v48c0 3.3-2.7 6-6 6h-188c-3.3 0-6-2.7-6-6z" stroke="#000" stroke-opacity="0" stroke-width="3" fill="#fff" fill-opacity="0"/><g><use xlink:href="#j" transform="matrix(1,0,0,1,5925,503.89689984299866) translate(14.81481481481481 30.27777777777778)"/></g><path d="M6300 409.48c0-3.3 2.7-6 6-6h25c3.3 0 6 2.7 6 6v28c0 3.32-2.7 6-6 6h-25c-3.3 0-6-2.68-6-6zM6300 350.35c0-3.3 2.7-6 6-6h25c3.3 0 6 2.7 6 6v28c0 3.3-2.7 6-6 6h-25c-3.3 0-6-2.7-6-6zM6300 291.2c0-3.3 2.7-6 6-6h25c3.3 0 6 2.7 6 6v28c0 3.33-2.7 6-6 6h-25c-3.3 0-6-2.67-6-6zM6300 232.9c0-3.32 2.7-6 6-6h25c3.3 0 6 2.68 6 6v28c0 3.3-2.7 6-6 6h-25c-3.3 0-6-2.7-6-6z" stroke="#5e5e5e" stroke-width="3" fill="#fff"/><path d="M5980 668.74c0-3.32 2.7-6 6-6h188c3.3 0 6 2.68 6 6v48c0 3.3-2.7 6-6 6h-188c-3.3 0-6-2.7-6-6z" stroke="#000" stroke-opacity="0" stroke-width="3" fill="#fff" fill-opacity="0"/><g><use xlink:href="#j" transform="matrix(1,0,0,1,5985,667.7377899495441) translate(14.81481481481481 30.27777777777778)"/></g><path d="M6471.5 471.28" stroke="#5e5e5e" stroke-width="3" fill="none"/><path fill="#5e5e5e"/><path fill="#5e5e5e"/><path d="M6445 451.32h-46.5c-3.32 0-6-2.7-6-6v-15.84c0-3.3-2.7-6-6-6H6340" stroke="#5e5e5e" stroke-width="3" fill="none"/><path d="M6446.5 452.8h3v.02h-4.53v-3h1.54M6340.03 424.98h-1.54v-3h1.53" fill="#5e5e5e"/><path d="M6236.5 441.48c0-3.3 2.7-6 6-6h25c3.3 0 6 2.7 6 6v28c0 3.32-2.7 6-6 6h-25c-3.3 0-6-2.68-6-6zM6120 441.48c0-3.3 2.7-6 6-6h25c3.3 0 6 2.7 6 6v28c0 3.32-2.7 6-6 6h-25c-3.3 0-6-2.68-6-6z" stroke="#5e5e5e" stroke-width="3" fill="#fff"/><g><path d="M6138.5 495.2v11M6138.5 540.2v5" stroke="#5e5e5e" stroke-width="3" fill="none"/><path d="M6152.5 520.2c0 7.74-6.27 14-14 14-7.74 0-14-6.26-14-14 0-7.72 6.26-14 14-14 7.73 0 14 6.28 14 14z" stroke="#5e5e5e" stroke-width="3" fill="#fff"/><path d="M6118.5 520.2c0 11.05 8.95 20 20 20 11.04 0 20-8.95 20-20" stroke="#5e5e5e" stroke-width="3" fill="none"/><path d="M6138.5 495.2c.44 0 .8.37.8.8v9.4c0 .45-.36.8-.8.8-.45 0-.8-.35-.8-.8V496c0-.43.35-.8.8-.8z" fill="none"/></g><path d="M6138.5 493.7V478.5" stroke="#5e5e5e" stroke-width="3" fill="none"/><path d="M6137 495.2v-1.53h3v1.54M6140 478.52h-3v-1.54h3" fill="#5e5e5e"/><path d="M6138.5 546.7v25.78" stroke="#5e5e5e" stroke-width="3" fill="none"/><path d="M6140 546.75h-3v-1.54h3v-3M6140 573.98h-3v-1.53h3" fill="#5e5e5e"/><path d="M6260 505.06c0-3.32 2.7-6 6-6h188c3.3 0 6 2.68 6 6v48c0 3.3-2.7 6-6 6h-188c-3.3 0-6-2.7-6-6z" stroke="#000" stroke-opacity="0" stroke-width="3" fill="#fff" fill-opacity="0"/><g><use xlink:href="#j" transform="matrix(1,0,0,1,6265,504.0573821738035) translate(14.81481481481481 30.27777777777778)"/></g><defs><path fill="#333" d="M233-177c-1 41-23 64-60 70L243 0h-38l-65-103H63V0H30v-248c88 3 205-21 203 71zM63-129c60-2 137 13 137-47 0-61-80-42-137-45v92" id="k"/><path fill="#333" d="M100-194c63 0 86 42 84 106H49c0 40 14 67 53 68 26 1 43-12 49-29l28 8c-11 28-37 45-77 45C44 4 14-33 15-96c1-61 26-98 85-98zm52 81c6-60-76-77-97-28-3 7-6 17-6 28h103" id="l"/><path fill="#333" d="M96-169c-40 0-48 33-48 73s9 75 48 75c24 0 41-14 43-38l32 2c-6 37-31 61-74 61-59 0-76-41-82-99-10-93 101-131 147-64 4 7 5 14 7 22l-32 3c-4-21-16-35-41-35" id="m"/><path fill="#333" d="M100-194c62-1 85 37 85 99 1 63-27 99-86 99S16-35 15-95c0-66 28-99 85-99zM99-20c44 1 53-31 53-75 0-43-8-75-51-75s-53 32-53 75 10 74 51 75" id="n"/><path fill="#333" d="M114-163C36-179 61-72 57 0H25l-1-190h30c1 12-1 29 2 39 6-27 23-49 58-41v29" id="o"/><path fill="#333" d="M85-194c31 0 48 13 60 33l-1-100h32l1 261h-30c-2-10 0-23-3-31C134-8 116 4 85 4 32 4 16-35 15-94c0-66 23-100 70-100zm9 24c-40 0-46 34-46 75 0 40 6 74 45 74 42 0 51-32 51-76 0-42-9-74-50-73" id="p"/><path fill="#333" d="M24-231v-30h32v30H24zM24 0v-190h32V0H24" id="q"/><path fill="#333" d="M117-194c89-4 53 116 60 194h-32v-121c0-31-8-49-39-48C34-167 62-67 57 0H25l-1-190h30c1 10-1 24 2 32 11-22 29-35 61-36" id="r"/><path fill="#333" d="M177-190C167-65 218 103 67 71c-23-6-38-20-44-43l32-5c15 47 100 32 89-28v-30C133-14 115 1 83 1 29 1 15-40 15-95c0-56 16-97 71-98 29-1 48 16 59 35 1-10 0-23 2-32h30zM94-22c36 0 50-32 50-73 0-42-14-75-50-75-39 0-46 34-46 75s6 73 46 73" id="s"/><g id="a"><use transform="matrix(0.06172839506172839,0,0,0.06172839506172839,0,0)" xlink:href="#k"/><use transform="matrix(0.06172839506172839,0,0,0.06172839506172839,15.987654320987653,0)" xlink:href="#l"/><use transform="matrix(0.06172839506172839,0,0,0.06172839506172839,28.333333333333332,0)" xlink:href="#m"/><use transform="matrix(0.06172839506172839,0,0,0.06172839506172839,39.44444444444444,0)" xlink:href="#n"/><use transform="matrix(0.06172839506172839,0,0,0.06172839506172839,51.79012345679012,0)" xlink:href="#o"/><use transform="matrix(0.06172839506172839,0,0,0.06172839506172839,59.1358024691358,0)" xlink:href="#p"/><use transform="matrix(0.06172839506172839,0,0,0.06172839506172839,71.48148148148148,0)" xlink:href="#q"/><use transform="matrix(0.06172839506172839,0,0,0.06172839506172839,76.35802469135803,0)" xlink:href="#r"/><use transform="matrix(0.06172839506172839,0,0,0.06172839506172839,88.70370370370371,0)" xlink:href="#s"/></g><path fill="#333" d="M30-248c87 1 191-15 191 75 0 78-77 80-158 76V0H30v-248zm33 125c57 0 124 11 124-50 0-59-68-47-124-48v98" id="t"/><path fill="#333" d="M115-194c55 1 70 41 70 98S169 2 115 4C84 4 66-9 55-30l1 105H24l-1-265h31l2 30c10-21 28-34 59-34zm-8 174c40 0 45-34 45-75s-6-73-45-74c-42 0-51 32-51 76 0 43 10 73 51 73" id="u"/><path fill="#333" d="M135-143c-3-34-86-38-87 0 15 53 115 12 119 90S17 21 10-45l28-5c4 36 97 45 98 0-10-56-113-15-118-90-4-57 82-63 122-42 12 7 21 19 24 35" id="v"/><g id="b"><use transform="matrix(0.06172839506172839,0,0,0.06172839506172839,0,0)" xlink:href="#t"/><use transform="matrix(0.06172839506172839,0,0,0.06172839506172839,14.814814814814813,0)" xlink:href="#o"/><use transform="matrix(0.06172839506172839,0,0,0.06172839506172839,22.160493827160494,0)" xlink:href="#l"/><use transform="matrix(0.06172839506172839,0,0,0.06172839506172839,34.50617283950617,0)" xlink:href="#u"/><use transform="matrix(0.06172839506172839,0,0,0.06172839506172839,46.85185185185185,0)" xlink:href="#o"/><use transform="matrix(0.06172839506172839,0,0,0.06172839506172839,54.197530864197525,0)" xlink:href="#n"/><use transform="matrix(0.06172839506172839,0,0,0.06172839506172839,66.5432098765432,0)" xlink:href="#m"/><use transform="matrix(0.06172839506172839,0,0,0.06172839506172839,77.65432098765432,0)" xlink:href="#l"/><use transform="matrix(0.06172839506172839,0,0,0.06172839506172839,90,0)" xlink:href="#v"/><use transform="matrix(0.06172839506172839,0,0,0.06172839506172839,101.11111111111111,0)" xlink:href="#v"/><use transform="matrix(0.06172839506172839,0,0,0.06172839506172839,112.22222222222223,0)" xlink:href="#q"/><use transform="matrix(0.06172839506172839,0,0,0.06172839506172839,117.09876543209877,0)" xlink:href="#r"/><use transform="matrix(0.06172839506172839,0,0,0.06172839506172839,129.44444444444446,0)" xlink:href="#s"/></g><path fill="#333" d="M240 0l2-218c-23 76-54 145-80 218h-23L58-218 59 0H30v-248h44l77 211c21-75 51-140 76-211h43V0h-30" id="w"/><path fill="#333" d="M141-36C126-15 110 5 73 4 37 3 15-17 15-53c-1-64 63-63 125-63 3-35-9-54-41-54-24 1-41 7-42 31l-33-3c5-37 33-52 76-52 45 0 72 20 72 64v82c-1 20 7 32 28 27v20c-31 9-61-2-59-35zM48-53c0 20 12 33 32 33 41-3 63-29 60-74-43 2-92-5-92 41" id="x"/><path fill="#333" d="M106-169C34-169 62-67 57 0H25v-261h32l-1 103c12-21 28-36 61-36 89 0 53 116 60 194h-32v-121c2-32-8-49-39-48" id="y"/><g id="c"><use transform="matrix(0.06172839506172839,0,0,0.06172839506172839,0,0)" xlink:href="#w"/><use transform="matrix(0.06172839506172839,0,0,0.06172839506172839,18.456790123456788,0)" xlink:href="#x"/><use transform="matrix(0.06172839506172839,0,0,0.06172839506172839,30.80246913580247,0)" xlink:href="#m"/><use transform="matrix(0.06172839506172839,0,0,0.06172839506172839,41.91358024691358,0)" xlink:href="#y"/><use transform="matrix(0.06172839506172839,0,0,0.06172839506172839,54.25925925925926,0)" xlink:href="#q"/><use transform="matrix(0.06172839506172839,0,0,0.06172839506172839,59.135802469135804,0)" xlink:href="#r"/><use transform="matrix(0.06172839506172839,0,0,0.06172839506172839,71.48148148148148,0)" xlink:href="#l"/></g><path fill="#333" d="M30 0v-248h33v221h125V0H30" id="z"/><g id="d"><use transform="matrix(0.06172839506172839,0,0,0.06172839506172839,0,0)" xlink:href="#z"/><use transform="matrix(0.06172839506172839,0,0,0.06172839506172839,12.345679012345679,0)" xlink:href="#l"/><use transform="matrix(0.06172839506172839,0,0,0.06172839506172839,24.691358024691358,0)" xlink:href="#x"/><use transform="matrix(0.06172839506172839,0,0,0.06172839506172839,37.03703703703704,0)" xlink:href="#o"/><use transform="matrix(0.06172839506172839,0,0,0.06172839506172839,44.382716049382715,0)" xlink:href="#r"/><use transform="matrix(0.06172839506172839,0,0,0.06172839506172839,56.72839506172839,0)" xlink:href="#q"/><use transform="matrix(0.06172839506172839,0,0,0.06172839506172839,61.60493827160494,0)" xlink:href="#r"/><use transform="matrix(0.06172839506172839,0,0,0.06172839506172839,73.95061728395062,0)" xlink:href="#s"/></g><path fill="#333" d="M24 0v-261h32V0H24" id="A"/><path fill="#333" d="M59-47c-2 24 18 29 38 22v24C64 9 27 4 27-40v-127H5v-23h24l9-43h21v43h35v23H59v120" id="B"/><path fill="#333" d="M179-190L93 31C79 59 56 82 12 73V49c39 6 53-20 64-50L1-190h34L92-34l54-156h33" id="C"/><g id="e"><use transform="matrix(0.06172839506172839,0,0,0.06172839506172839,0,0)" xlink:href="#z"/><use transform="matrix(0.06172839506172839,0,0,0.06172839506172839,12.345679012345679,0)" xlink:href="#n"/><use transform="matrix(0.06172839506172839,0,0,0.06172839506172839,24.691358024691358,0)" xlink:href="#m"/><use transform="matrix(0.06172839506172839,0,0,0.06172839506172839,35.80246913580247,0)" xlink:href="#x"/><use transform="matrix(0.06172839506172839,0,0,0.06172839506172839,48.148148148148145,0)" xlink:href="#A"/><use transform="matrix(0.06172839506172839,0,0,0.06172839506172839,53.02469135802469,0)" xlink:href="#q"/><use transform="matrix(0.06172839506172839,0,0,0.06172839506172839,57.901234567901234,0)" xlink:href="#B"/><use transform="matrix(0.06172839506172839,0,0,0.06172839506172839,64.07407407407408,0)" xlink:href="#C"/><use transform="matrix(0.06172839506172839,0,0,0.06172839506172839,75.18518518518519,0)" xlink:href="#k"/><use transform="matrix(0.06172839506172839,0,0,0.06172839506172839,91.17283950617285,0)" xlink:href="#l"/><use transform="matrix(0.06172839506172839,0,0,0.06172839506172839,103.51851851851853,0)" xlink:href="#m"/><use transform="matrix(0.06172839506172839,0,0,0.06172839506172839,114.62962962962965,0)" xlink:href="#n"/><use transform="matrix(0.06172839506172839,0,0,0.06172839506172839,126.97530864197533,0)" xlink:href="#o"/><use transform="matrix(0.06172839506172839,0,0,0.06172839506172839,134.32098765432102,0)" xlink:href="#p"/><use transform="matrix(0.06172839506172839,0,0,0.06172839506172839,146.66666666666669,0)" xlink:href="#l"/><use transform="matrix(0.06172839506172839,0,0,0.06172839506172839,159.01234567901236,0)" xlink:href="#o"/></g><g id="f"><use transform="matrix(0.06172839506172839,0,0,0.06172839506172839,0,0)" xlink:href="#z"/><use transform="matrix(0.06172839506172839,0,0,0.06172839506172839,12.345679012345679,0)" xlink:href="#n"/><use transform="matrix(0.06172839506172839,0,0,0.06172839506172839,24.691358024691358,0)" xlink:href="#m"/><use transform="matrix(0.06172839506172839,0,0,0.06172839506172839,35.80246913580247,0)" xlink:href="#x"/><use transform="matrix(0.06172839506172839,0,0,0.06172839506172839,48.148148148148145,0)" xlink:href="#A"/><use transform="matrix(0.06172839506172839,0,0,0.06172839506172839,53.02469135802469,0)" xlink:href="#q"/><use transform="matrix(0.06172839506172839,0,0,0.06172839506172839,57.901234567901234,0)" xlink:href="#B"/><use transform="matrix(0.06172839506172839,0,0,0.06172839506172839,64.07407407407408,0)" xlink:href="#C"/><use transform="matrix(0.06172839506172839,0,0,0.06172839506172839,75.18518518518519,0)" xlink:href="#t"/><use transform="matrix(0.06172839506172839,0,0,0.06172839506172839,90,0)" xlink:href="#o"/><use transform="matrix(0.06172839506172839,0,0,0.06172839506172839,97.34567901234568,0)" xlink:href="#l"/><use transform="matrix(0.06172839506172839,0,0,0.06172839506172839,109.69135802469137,0)" xlink:href="#u"/><use transform="matrix(0.06172839506172839,0,0,0.06172839506172839,122.03703703703705,0)" xlink:href="#o"/><use transform="matrix(0.06172839506172839,0,0,0.06172839506172839,129.38271604938274,0)" xlink:href="#n"/><use transform="matrix(0.06172839506172839,0,0,0.06172839506172839,141.7283950617284,0)" xlink:href="#m"/><use transform="matrix(0.06172839506172839,0,0,0.06172839506172839,152.83950617283952,0)" xlink:href="#l"/><use transform="matrix(0.06172839506172839,0,0,0.06172839506172839,165.1851851851852,0)" xlink:href="#v"/><use transform="matrix(0.06172839506172839,0,0,0.06172839506172839,176.2962962962963,0)" xlink:href="#v"/><use transform="matrix(0.06172839506172839,0,0,0.06172839506172839,187.40740740740742,0)" xlink:href="#n"/><use transform="matrix(0.06172839506172839,0,0,0.06172839506172839,199.7530864197531,0)" xlink:href="#o"/></g><path fill="#333" d="M205 0l-28-72H64L36 0H1l101-248h38L239 0h-34zm-38-99l-47-123c-12 45-31 82-46 123h93" id="D"/><g id="g"><use transform="matrix(0.06172839506172839,0,0,0.06172839506172839,0,0)" xlink:href="#D"/><use transform="matrix(0.06172839506172839,0,0,0.06172839506172839,14.814814814814813,0)" xlink:href="#r"/><use transform="matrix(0.06172839506172839,0,0,0.06172839506172839,27.160493827160494,0)" xlink:href="#r"/><use transform="matrix(0.06172839506172839,0,0,0.06172839506172839,39.50617283950617,0)" xlink:href="#n"/><use transform="matrix(0.06172839506172839,0,0,0.06172839506172839,51.85185185185185,0)" xlink:href="#B"/><use transform="matrix(0.06172839506172839,0,0,0.06172839506172839,58.02469135802469,0)" xlink:href="#x"/><use transform="matrix(0.06172839506172839,0,0,0.06172839506172839,70.37037037037037,0)" xlink:href="#B"/><use transform="matrix(0.06172839506172839,0,0,0.06172839506172839,76.5432098765432,0)" xlink:href="#n"/><use transform="matrix(0.06172839506172839,0,0,0.06172839506172839,88.88888888888889,0)" xlink:href="#o"/></g><path fill="#333" d="M140-251c81 0 123 46 123 126C263-53 228-8 163 1c7 30 30 48 69 40v23c-55 16-95-15-103-61C56-3 17-48 17-125c0-80 42-126 123-126zm0 227c63 0 89-41 89-101s-29-99-89-99c-61 0-89 39-89 99S79-25 140-24" id="E"/><path fill="#333" d="M84 4C-5 8 30-112 23-190h32v120c0 31 7 50 39 49 72-2 45-101 50-169h31l1 190h-30c-1-10 1-25-2-33-11 22-28 36-60 37" id="F"/><path fill="#333" d="M101-234c-31-9-42 10-38 44h38v23H63V0H32v-167H5v-23h27c-7-52 17-82 69-68v24" id="G"/><g id="h"><use transform="matrix(0.06172839506172839,0,0,0.06172839506172839,0,0)" xlink:href="#E"/><use transform="matrix(0.06172839506172839,0,0,0.06172839506172839,17.28395061728395,0)" xlink:href="#F"/><use transform="matrix(0.06172839506172839,0,0,0.06172839506172839,29.629629629629626,0)" xlink:href="#x"/><use transform="matrix(0.06172839506172839,0,0,0.06172839506172839,41.9753086419753,0)" xlink:href="#r"/><use transform="matrix(0.06172839506172839,0,0,0.06172839506172839,54.32098765432098,0)" xlink:href="#B"/><use transform="matrix(0.06172839506172839,0,0,0.06172839506172839,60.49382716049382,0)" xlink:href="#q"/><use transform="matrix(0.06172839506172839,0,0,0.06172839506172839,65.37037037037037,0)" xlink:href="#G"/><use transform="matrix(0.06172839506172839,0,0,0.06172839506172839,71.5432098765432,0)" xlink:href="#q"/><use transform="matrix(0.06172839506172839,0,0,0.06172839506172839,76.41975308641975,0)" xlink:href="#l"/><use transform="matrix(0.06172839506172839,0,0,0.06172839506172839,88.76543209876543,0)" xlink:href="#o"/></g><g id="i"><use transform="matrix(0.06172839506172839,0,0,0.06172839506172839,0,0)" xlink:href="#t"/><use transform="matrix(0.06172839506172839,0,0,0.06172839506172839,14.814814814814813,0)" xlink:href="#o"/><use transform="matrix(0.06172839506172839,0,0,0.06172839506172839,22.160493827160494,0)" xlink:href="#l"/><use transform="matrix(0.06172839506172839,0,0,0.06172839506172839,34.50617283950617,0)" xlink:href="#u"/><use transform="matrix(0.06172839506172839,0,0,0.06172839506172839,46.85185185185185,0)" xlink:href="#o"/><use transform="matrix(0.06172839506172839,0,0,0.06172839506172839,54.197530864197525,0)" xlink:href="#n"/><use transform="matrix(0.06172839506172839,0,0,0.06172839506172839,66.5432098765432,0)" xlink:href="#m"/><use transform="matrix(0.06172839506172839,0,0,0.06172839506172839,77.65432098765432,0)" xlink:href="#l"/><use transform="matrix(0.06172839506172839,0,0,0.06172839506172839,90,0)" xlink:href="#v"/><use transform="matrix(0.06172839506172839,0,0,0.06172839506172839,101.11111111111111,0)" xlink:href="#v"/><use transform="matrix(0.06172839506172839,0,0,0.06172839506172839,112.22222222222223,0)" xlink:href="#n"/><use transform="matrix(0.06172839506172839,0,0,0.06172839506172839,124.56790123456791,0)" xlink:href="#o"/></g><path fill="#333" d="M18-100v-36l175-74v27L42-118l151 64v27" id="H"/><path fill="#333" d="M115-194c53 0 69 39 70 98 0 66-23 100-70 100C84 3 66-7 56-30L54 0H23l1-261h32v101c10-23 28-34 59-34zm-8 174c40 0 45-34 45-75 0-40-5-75-45-74-42 0-51 32-51 76 0 43 10 73 51 73" id="I"/><path fill="#333" d="M143 0L79-87 56-68V0H24v-261h32v163l83-92h37l-77 82L181 0h-38" id="J"/><path fill="#333" d="M18-27v-27l151-64-151-65v-27l175 74v36" id="K"/><g id="j"><use transform="matrix(0.06172839506172839,0,0,0.06172839506172839,0,0)" xlink:href="#H"/><use transform="matrix(0.06172839506172839,0,0,0.06172839506172839,12.962962962962962,0)" xlink:href="#H"/><use transform="matrix(0.06172839506172839,0,0,0.06172839506172839,25.925925925925924,0)" xlink:href="#I"/><use transform="matrix(0.06172839506172839,0,0,0.06172839506172839,38.2716049382716,0)" xlink:href="#A"/><use transform="matrix(0.06172839506172839,0,0,0.06172839506172839,43.148148148148145,0)" xlink:href="#x"/><use transform="matrix(0.06172839506172839,0,0,0.06172839506172839,55.49382716049382,0)" xlink:href="#m"/><use transform="matrix(0.06172839506172839,0,0,0.06172839506172839,66.60493827160494,0)" xlink:href="#J"/><use transform="matrix(0.06172839506172839,0,0,0.06172839506172839,77.71604938271605,0)" xlink:href="#I"/><use transform="matrix(0.06172839506172839,0,0,0.06172839506172839,90.06172839506173,0)" xlink:href="#n"/><use transform="matrix(0.06172839506172839,0,0,0.06172839506172839,102.40740740740742,0)" xlink:href="#x"/><use transform="matrix(0.06172839506172839,0,0,0.06172839506172839,114.7530864197531,0)" xlink:href="#o"/><use transform="matrix(0.06172839506172839,0,0,0.06172839506172839,122.09876543209879,0)" xlink:href="#p"/><use transform="matrix(0.06172839506172839,0,0,0.06172839506172839,134.44444444444446,0)" xlink:href="#K"/><use transform="matrix(0.06172839506172839,0,0,0.06172839506172839,147.40740740740742,0)" xlink:href="#K"/></g></defs></g></svg>